<svg width="15" height="15" viewBox="0 0 15 15" fill="none" xmlns="http://www.w3.org/2000/svg">
<g clip-path="url(#clip0_1_25)">
<path d="M7.5 2.8125C4.375 2.8125 1.70625 4.75625 0.625 7.5C1.70625 10.2438 4.375 12.1875 7.5 12.1875C10.625 12.1875 13.2937 10.2438 14.375 7.5C13.2937 4.75625 10.625 2.8125 7.5 2.8125ZM7.5 10.625C5.775 10.625 4.375 9.225 4.375 7.5C4.375 5.775 5.775 4.375 7.5 4.375C9.225 4.375 10.625 5.775 10.625 7.5C10.625 9.225 9.225 10.625 7.5 10.625ZM7.5 5.625C6.4625 5.625 5.625 6.4625 5.625 7.5C5.625 8.5375 6.4625 9.375 7.5 9.375C8.5375 9.375 9.375 8.5375 9.375 7.5C9.375 6.4625 8.5375 5.625 7.5 5.625Z" fill="black" fill-opacity="0.3"/>
</g>
<defs>
<clipPath id="clip0_1_25">
<rect width="15" height="15" fill="white"/>
</clipPath>
</defs>
</svg>
