<svg width="64" height="36" viewBox="0 0 64 36" fill="none" xmlns="http://www.w3.org/2000/svg">
<path d="M13.7288 35.72C11.2968 35.72 9.04075 35.112 6.96075 33.896C4.91275 32.68 3.28075 31.048 2.06475 29C0.84875 26.92 0.24075 24.664 0.24075 22.232V1.592H27.2168V22.232C27.2168 24.664 26.6088 26.92 25.3928 29C24.1768 31.048 22.5288 32.68 20.4488 33.896C18.4008 35.112 16.1608 35.72 13.7288 35.72ZM63.036 22.376C63.068 26.568 61.868 29.848 59.436 32.216C57.004 34.552 53.66 35.72 49.404 35.72C46.876 35.72 44.54 35.144 42.396 33.992C40.284 32.84 38.604 31.208 37.356 29.096C36.108 26.984 35.484 24.552 35.484 21.8V14.792C35.484 12.072 36.076 9.656 37.26 7.544C38.476 5.432 40.124 3.8 42.204 2.648C44.316 1.464 46.668 0.871999 49.26 0.871999C53.516 0.871999 56.844 2.04 59.244 4.376C61.676 6.68 62.908 9.944 62.94 14.168H54.3C54.268 12.536 53.82 11.272 52.956 10.376C52.124 9.48 50.892 9.032 49.26 9.032C47.788 9.032 46.572 9.496 45.612 10.424C44.652 11.352 44.172 12.664 44.172 14.36V22.184C44.172 23.88 44.668 25.208 45.66 26.168C46.684 27.096 47.932 27.56 49.404 27.56C52.764 27.56 54.444 25.832 54.444 22.376H63.036Z" fill="white"/>
</svg>
